<svg xmlns="http://www.w3.org/2000/svg" viewBox="0 0 56 56" fill="none">
  <!-- Background -->
  <rect width="56" height="56" rx="12" fill="#0E3530"/>
  <rect width="56" height="56" rx="12" fill="url(#bgGrad)" opacity="0.45"/>

  <!-- Horizon glow -->
  <ellipse cx="28" cy="36" rx="20" ry="3.5" fill="#C79C49" opacity="0.18"/>

  <!-- Horizon line -->
  <path d="M 6 36 Q 28 34.2 50 36" stroke="#C79C49" stroke-width="1.5" fill="none" stroke-linecap="round"/>

  <!-- Rising sun arc -->
  <path d="M 14 36 A 14 14 0 0 1 42 36" stroke="url(#arcGrad)" stroke-width="2.2" fill="none" stroke-linecap="round"/>

  <!-- Sun core -->
  <circle cx="28" cy="36" r="3.2" fill="url(#sunGrad)"/>
  <circle cx="28" cy="36" r="1.4" fill="#FDEEA0" opacity="0.9"/>

  <!-- Top ray -->
  <line x1="28" y1="10" x2="28" y2="16.5" stroke="#E8B455" stroke-width="1.8" stroke-linecap="round"/>

  <!-- Diagonal rays -->
  <line x1="16" y1="16" x2="20.2" y2="20.2" stroke="#E8B455" stroke-width="1.5" stroke-linecap="round"/>
  <line x1="40" y1="16" x2="35.8" y2="20.2" stroke="#E8B455" stroke-width="1.5" stroke-linecap="round"/>

  <!-- Side rays -->
  <line x1="8.5" y1="27.5" x2="13.5" y2="29.5" stroke="#E8B455" stroke-width="1.3" stroke-linecap="round" opacity="0.8"/>
  <line x1="47.5" y1="27.5" x2="42.5" y2="29.5" stroke="#E8B455" stroke-width="1.3" stroke-linecap="round" opacity="0.8"/>

  <!-- Below-horizon depth lines -->
  <line x1="9" y1="41" x2="47" y2="41" stroke="#1F7A63" stroke-width="1" stroke-linecap="round" opacity="0.5"/>
  <line x1="13" y1="45.5" x2="43" y2="45.5" stroke="#1F7A63" stroke-width="1" stroke-linecap="round" opacity="0.3"/>
  <line x1="18" y1="49.5" x2="38" y2="49.5" stroke="#1F7A63" stroke-width="1" stroke-linecap="round" opacity="0.18"/>

  <defs>
    <linearGradient id="bgGrad" x1="0" y1="0" x2="56" y2="56" gradientUnits="userSpaceOnUse">
      <stop offset="0%" stop-color="#25A078" stop-opacity="0.35"/>
      <stop offset="100%" stop-color="#091F1B" stop-opacity="0"/>
    </linearGradient>
    <linearGradient id="arcGrad" x1="14" y1="22" x2="42" y2="36" gradientUnits="userSpaceOnUse">
      <stop offset="0%" stop-color="#F0C94B"/>
      <stop offset="100%" stop-color="#E8B455"/>
    </linearGradient>
    <radialGradient id="sunGrad" cx="50%" cy="50%" r="50%">
      <stop offset="0%" stop-color="#FDEEA0"/>
      <stop offset="60%" stop-color="#F0C94B"/>
      <stop offset="100%" stop-color="#C79C49"/>
    </radialGradient>
  </defs>
</svg>
